<?xml version="1.0" standalone="no"?>
<!DOCTYPE svg PUBLIC "-//W3C//DTD SVG 20010904//EN"
 "http://www.w3.org/TR/2001/REC-SVG-20010904/DTD/svg10.dtd">
<svg version="1.0" xmlns="http://www.w3.org/2000/svg"
 width="1408.000000pt" height="768.000000pt" viewBox="0 0 1408.000000 768.000000"
 preserveAspectRatio="xMidYMid meet">

<g transform="translate(0.000000,768.000000) scale(0.100000,-0.100000)"
fill="#000000" stroke="none">
<path d="M6747 6889 c-1206 -127 -2199 -1035 -2396 -2189 -162 -952 249 -1868
1092 -2431 81 -55 151 -99 156 -99 15 0 33 29 28 44 -3 8 -58 48 -122 91 -594
392 -980 962 -1096 1620 -19 110 -23 165 -23 355 -1 250 12 365 65 580 130
528 452 1028 884 1374 648 519 1453 714 2263 547 339 -70 644 -198 937 -392
622 -412 1028 -1037 1140 -1754 23 -144 30 -416 16 -560 -36 -346 -141 -659
-324 -965 -88 -146 -226 -320 -367 -460 -150 -150 -248 -230 -423 -344 -65
-42 -120 -83 -124 -92 -3 -9 1 -23 10 -31 15 -15 21 -13 79 22 206 125 368
256 544 437 371 385 590 833 665 1368 17 119 15 450 -4 585 -82 587 -355 1123
-782 1534 -449 430 -1009 691 -1637 760 -111 13 -465 12 -581 0z"/>
<path d="M6908 6683 c-2 -5 -2 -45 0 -90 3 -74 6 -83 23 -83 14 0 19 7 19 30
0 28 3 30 35 30 29 0 35 4 35 21 0 18 -5 20 -37 17 -33 -3 -38 0 -41 19 -3 19
3 23 42 28 29 5 46 12 46 21 0 10 -15 14 -59 14 -33 0 -61 -3 -63 -7z"/>
<path d="M7100 6678 c-43 -23 -63 -86 -40 -129 16 -29 67 -51 101 -44 35 8 69
56 69 97 0 59 -77 103 -130 76z m80 -47 c22 -42 1 -91 -40 -91 -41 0 -68 68
-38 98 19 19 66 15 78 -7z"/>
<path d="M6752 6673 l-34 -4 7 -72 c8 -91 13 -107 31 -107 9 0 14 11 14 30 0
38 24 40 52 5 11 -14 28 -25 39 -25 24 0 24 12 -1 35 -17 16 -18 20 -5 38 42
60 -12 112 -103 100z m74 -48 c9 -21 -14 -45 -42 -45 -20 0 -24 5 -24 30 0 27
3 30 30 30 18 0 33 -6 36 -15z"/>
<path d="M7265 6613 c-3 -37 -9 -78 -12 -90 -4 -18 -1 -23 15 -23 13 0 22 8
24 22 5 33 26 33 45 -1 10 -17 26 -31 36 -31 20 0 21 4 7 31 -8 15 -6 25 11
48 37 50 6 92 -77 106 l-42 6 -7 -68z m95 12 c19 -23 4 -45 -30 -45 -30 0 -37
11 -24 44 8 20 38 21 54 1z"/>
<path d="M6590 6651 c-40 -7 -39 -1 -22 -105 l14 -78 56 7 c66 8 73 11 66 29
-4 10 -18 12 -50 8 -39 -4 -44 -2 -44 16 0 15 9 21 35 26 22 4 35 13 35 22 0
13 -8 14 -39 9 -33 -5 -39 -3 -43 13 -5 17 1 21 38 27 29 4 44 11 44 21 0 15
-26 16 -90 5z"/>
<path d="M7455 6637 c-3 -12 -10 -44 -15 -72 -6 -27 -13 -58 -16 -67 -4 -13 0
-18 15 -18 16 0 21 9 27 45 7 51 20 51 30 0 9 -51 23 -53 61 -9 l34 39 -6 -35
c-4 -19 -9 -43 -11 -52 -4 -13 0 -18 14 -18 17 0 22 12 35 82 19 106 8 117
-50 51 -23 -26 -44 -46 -46 -43 -2 3 -12 28 -21 57 -19 57 -43 76 -51 40z"/>
<path d="M6403 6613 c-28 -5 -28 -17 -5 -108 13 -51 23 -71 37 -73 15 -3 17 1
12 27 -5 26 -3 31 12 31 28 0 71 39 71 64 0 12 -7 32 -16 44 -15 22 -50 27
-111 15z m85 -46 c5 -23 -15 -47 -38 -47 -23 0 -37 49 -18 62 21 13 52 5 56
-15z"/>
<path d="M7678 6517 c-45 -58 -53 -74 -41 -80 9 -6 21 -3 31 6 25 23 70 10 88
-24 28 -55 37 -35 30 63 -4 50 -9 95 -12 100 -13 21 -44 1 -96 -65z m72 -7 c0
-23 -4 -30 -20 -30 -24 0 -26 17 -3 42 21 24 23 23 23 -12z"/>
<path d="M6204 6547 c-3 -8 0 -25 5 -39 8 -23 6 -27 -25 -41 l-34 -17 -14 35
c-11 25 -19 33 -30 29 -9 -3 -16 -8 -16 -9 0 -2 14 -40 31 -85 23 -60 35 -80
46 -76 8 3 17 6 19 6 2 0 -2 16 -10 35 l-15 35 32 14 c31 13 32 13 47 -20 15
-33 33 -43 44 -25 8 12 -53 171 -65 171 -5 0 -12 -6 -15 -13z"/>
<path d="M7845 6473 c-17 -42 -31 -80 -33 -83 -2 -4 4 -10 13 -14 12 -4 22 7
39 45 l22 51 18 -65 c20 -74 41 -92 57 -49 46 117 51 134 41 144 -15 15 -27 4
-42 -41 -7 -23 -16 -41 -20 -41 -4 0 -12 23 -19 52 -11 49 -26 78 -40 78 -3 0
-20 -35 -36 -77z"/>
<path d="M6323 6493 c-13 -2 -23 -11 -23 -19 0 -16 37 -19 59 -5 13 8 7 32 -7
30 -4 -1 -17 -4 -29 -6z"/>
<path d="M5969 6457 c-28 -21 -41 -57 -35 -93 13 -68 98 -97 152 -51 25 22 26
25 13 60 -14 39 -17 41 -37 28 -12 -7 -12 -12 0 -30 11 -20 11 -24 -6 -37 -27
-19 -42 -18 -66 6 -38 38 -17 94 39 102 14 1 26 9 29 16 5 16 -67 16 -89 -1z"/>
<path d="M8052 6444 c-33 -23 -54 -70 -47 -105 9 -38 59 -72 95 -63 31 7 32 8
25 26 -4 9 -15 13 -29 11 -26 -5 -56 19 -56 45 0 53 62 80 97 43 21 -23 47
-14 37 13 -7 19 -54 46 -81 46 -10 0 -29 -7 -41 -16z"/>
<path d="M5840 6390 c0 -13 53 -118 72 -142 8 -11 18 -15 26 -9 19 12 -55 161
-80 161 -10 0 -18 -5 -18 -10z"/>
<path d="M8181 6324 c-23 -42 -39 -80 -34 -84 4 -4 29 -19 54 -33 41 -23 48
-25 53 -10 8 19 10 16 -31 37 -35 18 -38 23 -24 45 8 12 13 12 35 -2 31 -21
46 -22 46 -2 0 8 -14 22 -31 31 -28 14 -30 17 -16 31 13 13 18 13 46 -2 29
-15 51 -13 51 3 0 6 -92 62 -102 62 -2 0 -23 -34 -47 -76z"/>
<path d="M6905 6378 c-887 -44 -1669 -626 -1965 -1463 -82 -232 -114 -432
-115 -700 0 -211 10 -305 52 -493 163 -744 741 -1383 1469 -1625 988 -328
2053 72 2603 978 134 220 240 512 286 785 26 152 31 449 10 610 -18 149 -66
349 -115 480 -246 667 -819 1182 -1515 1360 -247 63 -441 82 -710 68z m405
-74 c220 -25 473 -98 675 -195 356 -170 690 -466 890 -791 338 -546 413 -1178
210 -1784 -110 -330 -275 -595 -529 -850 -322 -321 -702 -522 -1150 -605 -143
-27 -439 -37 -586 -20 -142 17 -310 53 -446 97 -196 62 -455 200 -629 333
-386 296 -676 734 -796 1205 -58 225 -75 549 -44 793 122 941 898 1698 1865
1818 147 18 381 18 540 -1z"/>
<path d="M6980 6013 c-76 -28 -1414 -570 -1445 -585 -53 -27 -92 -64 -118
-113 -22 -40 -22 -43 -22 -685 0 -578 2 -655 18 -740 91 -482 285 -800 690
-1129 106 -86 249 -183 257 -174 4 5 13 30 20 57 13 48 13 50 -11 65 -104 68
-284 216 -384 316 -243 244 -375 487 -440 809 -39 193 -45 310 -45 858 0 566
1 577 59 616 14 10 303 130 641 267 784 317 806 325 840 325 16 0 86 -22 156
-50 70 -27 132 -50 138 -50 11 0 66 72 66 87 0 4 -72 36 -159 71 -154 60 -213
72 -261 55z"/>
<path d="M7569 5981 c-14 -20 -76 -110 -139 -201 -62 -91 -206 -300 -320 -465
-113 -165 -300 -437 -415 -605 -114 -168 -256 -375 -315 -460 -59 -85 -135
-197 -169 -247 l-62 -93 336 0 c251 0 335 -3 335 -12 0 -6 -90 -328 -200 -715
-110 -386 -200 -705 -200 -708 0 -3 98 130 217 297 119 167 302 420 407 563
104 143 244 334 310 425 66 91 214 292 328 448 114 156 208 284 208 285 0 1
-148 1 -330 -1 -181 -1 -330 -1 -330 1 0 2 50 204 111 448 132 534 261 1070
257 1074 -2 2 -15 -14 -29 -34z m-349 -1038 c-70 -280 -130 -520 -133 -535
l-7 -28 290 -2 291 -3 -191 -260 c-105 -143 -232 -316 -283 -385 -96 -132
-147 -202 -267 -365 -41 -55 -100 -137 -133 -183 -63 -88 -90 -106 -40 -25 17
26 140 264 273 528 133 264 247 484 251 490 5 5 9 13 9 17 0 4 -117 8 -260 8
-176 0 -260 3 -260 11 0 5 4 7 10 4 6 -3 7 1 4 9 -4 10 -15 14 -28 12 -26 -5
-82 20 -90 39 -8 22 65 118 97 126 15 4 27 3 27 -2 0 -5 -6 -9 -12 -9 -8 0 -5
-7 6 -15 16 -12 22 -12 28 -2 6 9 8 9 8 -1 0 -8 5 -10 12 -6 8 5 9 1 4 -12 -5
-13 -4 -16 3 -9 15 15 44 88 32 80 -6 -3 -11 -1 -11 5 0 6 -4 9 -9 6 -5 -4 -8
2 -7 11 2 10 -4 28 -12 40 -8 13 -12 30 -8 38 3 8 4 15 2 15 -2 0 -72 -102
-156 -226 l-152 -226 -66 -29 c-35 -16 -66 -28 -68 -27 -1 2 90 138 203 303
113 165 320 469 461 675 232 341 301 440 306 440 1 0 -55 -228 -124 -507z
m-580 -789 c0 -6 -93 -44 -97 -40 -3 2 5 18 17 34 20 27 25 29 51 20 16 -5 29
-12 29 -14z"/>
<path d="M7185 5150 c-9 -16 -13 -30 -11 -30 3 0 12 14 21 30 9 17 13 30 11
30 -3 0 -12 -13 -21 -30z"/>
<path d="M7084 4972 c-6 -9 -20 -35 -33 -57 l-23 -40 27 30 c25 29 49 74 42
81 -1 2 -7 -5 -13 -14z"/>
<path d="M6925 4714 c-14 -22 -15 -28 -4 -36 11 -8 10 -9 -3 -5 -16 6 -24 -3
-64 -70 l-17 -28 24 28 c17 19 31 26 47 22 20 -4 22 -2 11 11 -10 13 -10 17 1
24 7 5 15 15 16 23 1 8 5 24 9 36 9 29 1 26 -20 -5z"/>
<path d="M7015 5820 c-13 -6 -15 -9 -5 -9 8 0 22 4 30 9 18 12 2 12 -25 0z"/>
<path d="M7099 5799 c24 -11 46 -18 48 -15 4 4 -73 36 -85 35 -4 0 13 -9 37
-20z"/>
<path d="M7631 5776 c-5 -11 -11 -37 -15 -57 l-6 -36 454 -182 c250 -101 462
-191 470 -200 45 -50 46 -61 46 -619 0 -299 -5 -576 -11 -638 -39 -401 -173
-707 -431 -978 -185 -196 -395 -353 -695 -519 -221 -123 -376 -191 -416 -183
-38 8 -195 80 -331 153 -55 29 -100 53 -101 53 -1 0 -16 -21 -35 -46 -26 -37
-30 -48 -19 -56 8 -5 105 -55 217 -111 289 -144 286 -144 594 11 575 290 962
631 1156 1017 80 160 140 365 167 570 21 157 23 1259 3 1328 -8 27 -30 60 -63
92 -48 48 -64 56 -513 236 -445 179 -464 186 -471 165z"/>
<path d="M7170 5770 c8 -5 20 -10 25 -10 6 0 3 5 -5 10 -8 5 -19 10 -25 10 -5
0 -3 -5 5 -10z"/>
<path d="M7220 5750 c8 -5 20 -10 25 -10 6 0 3 5 -5 10 -8 5 -19 10 -25 10 -5
0 -3 -5 5 -10z"/>
<path d="M7100 5740 c8 -5 20 -10 25 -10 6 0 3 5 -5 10 -8 5 -19 10 -25 10 -5
0 -3 -5 5 -10z"/>
<path d="M7268 5733 c6 -2 9 -10 6 -15 -4 -7 -2 -8 5 -4 13 9 5 26 -12 25 -9
0 -8 -2 1 -6z"/>
<path d="M7250 5690 c-9 -6 -10 -10 -3 -10 6 0 15 5 18 10 8 12 4 12 -15 0z"/>
<path d="M6670 5680 c-8 -5 -10 -10 -5 -10 6 0 17 5 25 10 8 5 11 10 5 10 -5
0 -17 -5 -25 -10z"/>
<path d="M6790 5670 c-8 -5 -10 -10 -5 -10 6 0 17 5 25 10 8 5 11 10 5 10 -5
0 -17 -5 -25 -10z"/>
<path d="M6620 5660 c-8 -5 -10 -10 -5 -10 6 0 17 5 25 10 8 5 11 10 5 10 -5
0 -17 -5 -25 -10z"/>
<path d="M6740 5650 c-8 -5 -10 -10 -5 -10 6 0 17 5 25 10 8 5 11 10 5 10 -5
0 -17 -5 -25 -10z"/>
<path d="M6690 5630 c-8 -5 -10 -10 -5 -10 6 0 17 5 25 10 8 5 11 10 5 10 -5
0 -17 -5 -25 -10z"/>
<path d="M6640 5610 c-8 -5 -10 -10 -5 -10 6 0 17 5 25 10 8 5 11 10 5 10 -5
0 -17 -5 -25 -10z"/>
<path d="M7591 5594 c0 -11 3 -14 6 -6 3 7 2 16 -1 19 -3 4 -6 -2 -5 -13z"/>
<path d="M6590 5590 c-8 -5 -10 -10 -5 -10 6 0 17 5 25 10 8 5 11 10 5 10 -5
0 -17 -5 -25 -10z"/>
<path d="M7640 5580 c8 -5 20 -10 25 -10 6 0 3 5 -5 10 -8 5 -19 10 -25 10 -5
0 -3 -5 5 -10z"/>
<path d="M7690 5560 c8 -5 20 -10 25 -10 6 0 3 5 -5 10 -8 5 -19 10 -25 10 -5
0 -3 -5 5 -10z"/>
<path d="M7580 5552 c0 -8 61 -34 67 -29 1 2 -13 11 -32 20 -19 9 -35 13 -35
9z"/>
<path d="M7740 5540 c8 -5 20 -10 25 -10 6 0 3 5 -5 10 -8 5 -19 10 -25 10 -5
0 -3 -5 5 -10z"/>
<path d="M7790 5520 c8 -5 20 -10 25 -10 6 0 3 5 -5 10 -8 5 -19 10 -25 10 -5
0 -3 -5 5 -10z"/>
<path d="M7670 5510 c8 -5 20 -10 25 -10 6 0 3 5 -5 10 -8 5 -19 10 -25 10 -5
0 -3 -5 5 -10z"/>
<path d="M7720 5490 c8 -5 20 -10 25 -10 6 0 3 5 -5 10 -8 5 -19 10 -25 10 -5
0 -3 -5 5 -10z"/>
<path d="M6125 5463 c-64 -27 -86 -40 -45 -28 35 11 127 53 115 53 -5 0 -37
-11 -70 -25z"/>
<path d="M6290 5470 c-8 -5 -10 -10 -5 -10 6 0 17 5 25 10 8 5 11 10 5 10 -5
0 -17 -5 -25 -10z"/>
<path d="M6220 5440 c-8 -5 -10 -10 -5 -10 6 0 17 5 25 10 8 5 11 10 5 10 -5
0 -17 -5 -25 -10z"/>
<path d="M6170 5420 c-8 -5 -10 -10 -5 -10 6 0 17 5 25 10 8 5 11 10 5 10 -5
0 -17 -5 -25 -10z"/>
<path d="M6120 5400 c-8 -5 -10 -10 -5 -10 6 0 17 5 25 10 8 5 11 10 5 10 -5
0 -17 -5 -25 -10z"/>
<path d="M8250 5336 c14 -7 36 -16 50 -20 14 -3 7 3 -15 13 -45 22 -73 27 -35
7z"/>
<path d="M5725 5300 c-22 -10 -33 -19 -25 -19 8 0 31 8 50 19 45 24 28 24 -25
0z"/>
<path d="M5870 5300 c-8 -5 -10 -10 -5 -10 6 0 17 5 25 10 8 5 11 10 5 10 -5
0 -17 -5 -25 -10z"/>
<path d="M8190 5300 c8 -5 20 -10 25 -10 6 0 3 5 -5 10 -8 5 -19 10 -25 10 -5
0 -3 -5 5 -10z"/>
<path d="M8340 5300 c8 -5 20 -10 25 -10 6 0 3 5 -5 10 -8 5 -19 10 -25 10 -5
0 -3 -5 5 -10z"/>
<path d="M5820 5280 c-8 -5 -10 -10 -5 -10 6 0 17 5 25 10 8 5 11 10 5 10 -5
0 -17 -5 -25 -10z"/>
<path d="M8269 5269 c24 -11 46 -18 48 -15 4 4 -73 36 -85 35 -4 0 13 -9 37
-20z"/>
<path d="M5650 5270 c-8 -5 -10 -10 -5 -10 6 0 17 5 25 10 8 5 11 10 5 10 -5
0 -17 -5 -25 -10z"/>
<path d="M5770 5263 c-8 -3 -26 -10 -39 -15 -13 -5 -22 -11 -19 -13 3 -3 25 3
49 14 40 18 46 28 9 14z"/>
<path d="M5675 5220 c-3 -6 1 -7 9 -4 18 7 21 14 7 14 -6 0 -13 -4 -16 -10z"/>
<path d="M8445 4650 c0 -300 1 -422 2 -272 2 149 2 395 0 545 -1 149 -2 27 -2
-273z"/>
<path d="M5876 5155 c-17 -5 -41 -25 -53 -44 -22 -33 -23 -42 -23 -235 0 -182
2 -204 19 -230 36 -55 40 -55 381 -56 l315 0 53 78 53 77 -325 3 c-317 2 -325
3 -331 23 -15 48 -7 49 360 49 l343 0 36 49 c20 27 36 51 36 55 0 3 -170 6
-378 6 -281 0 -381 3 -390 12 -16 16 -15 45 1 55 6 4 196 10 422 13 l410 5 47
69 c27 38 48 72 48 75 0 11 -992 6 -1024 -4z"/>
<path d="M8494 5050 c0 -69 1 -97 3 -62 2 34 2 90 0 125 -2 34 -3 6 -3 -63z"/>
<path d="M5583 5115 c0 -27 2 -38 4 -22 2 15 2 37 0 50 -2 12 -4 0 -4 -28z"/>
<path d="M7476 5148 c-11 -33 -76 -308 -76 -317 0 -8 65 -11 210 -11 194 0
210 -1 219 -19 7 -13 7 -23 -2 -35 -10 -14 -42 -16 -231 -18 l-220 -3 -18 -70
c-9 -38 -18 -73 -18 -77 0 -5 191 -8 425 -8 467 0 469 0 500 60 12 23 15 70
15 236 l0 206 -34 34 -34 34 -366 0 c-285 0 -367 -3 -370 -12z m638 -160 c8
-13 8 -23 0 -35 -10 -16 -34 -18 -234 -21 -229 -2 -250 1 -250 37 0 39 16 41
249 39 201 -3 225 -5 235 -20z"/>
<path d="M5631 5094 c0 -11 3 -14 6 -6 3 7 2 16 -1 19 -3 4 -6 -2 -5 -13z"/>
<path d="M5585 4570 c0 -267 1 -376 2 -242 2 133 2 351 0 485 -1 133 -2 24 -2
-243z"/>
<path d="M5634 4870 c0 -85 2 -120 3 -77 2 42 2 112 0 155 -1 42 -3 7 -3 -78z"/>
<path d="M8492 4700 c0 -19 2 -27 5 -17 2 9 2 25 0 35 -3 9 -5 1 -5 -18z"/>
<path d="M5633 4670 c0 -25 2 -35 4 -22 2 12 2 32 0 45 -2 12 -4 2 -4 -23z"/>
<path d="M8492 4615 c0 -16 2 -22 5 -12 2 9 2 23 0 30 -3 6 -5 -1 -5 -18z"/>
<path d="M5634 4425 c0 -55 1 -76 3 -47 2 29 2 74 0 100 -2 26 -3 2 -3 -53z"/>
<path d="M5874 4480 c-11 -4 -33 -22 -47 -40 l-27 -32 0 -201 c0 -185 2 -205
20 -235 28 -46 76 -63 162 -60 l70 3 54 78 55 77 -81 0 c-89 0 -120 10 -120
40 0 31 32 40 147 40 l108 0 38 55 38 55 -154 0 c-165 0 -186 6 -172 50 6 19
14 20 189 20 l183 0 35 53 c19 28 43 64 52 80 l18 27 -273 -1 c-151 0 -283 -4
-295 -9z"/>
<path d="M7973 4468 c-27 -31 -93 -124 -93 -132 0 -3 51 -6 114 -6 107 0 115
-1 121 -20 13 -42 -8 -49 -158 -52 l-141 -3 -38 -50 -38 -50 67 -3 c74 -3 93
-13 93 -47 0 -31 -16 -35 -126 -35 l-94 0 -55 -74 c-30 -41 -55 -77 -55 -80 0
-11 584 -6 622 4 20 6 48 24 62 41 l26 31 0 205 c0 172 -3 209 -16 233 -29 49
-62 60 -171 60 -91 0 -101 -2 -120 -22z"/>
<path d="M5634 4220 c0 -52 1 -74 3 -47 2 26 2 68 0 95 -2 26 -3 4 -3 -48z"/>
<path d="M8494 4175 c0 -60 1 -84 3 -52 2 32 2 81 0 110 -2 29 -3 3 -3 -58z"/>
<path d="M8431 4044 c0 -11 3 -14 6 -6 3 7 2 16 -1 19 -3 4 -6 -2 -5 -13z"/>
<path d="M8482 4005 c0 -16 2 -22 5 -12 2 9 2 23 0 30 -3 6 -5 -1 -5 -18z"/>
<path d="M5652 3960 c0 -14 2 -19 5 -12 2 6 2 18 0 25 -3 6 -5 1 -5 -13z"/>
<path d="M8411 3904 c-6 -37 -10 -68 -8 -71 3 -2 10 26 17 62 7 36 10 68 8 70
-3 3 -10 -25 -17 -61z"/>
<path d="M5601 3934 c0 -11 3 -14 6 -6 3 7 2 16 -1 19 -3 4 -6 -2 -5 -13z"/>
<path d="M8471 3933 c-1 -13 -6 -23 -12 -23 -6 0 -9 -9 -6 -20 3 -11 2 -20 -3
-20 -4 0 -11 -7 -14 -16 -4 -9 -2 -13 5 -8 8 5 9 -6 4 -37 -12 -72 3 -39 21
44 8 43 13 83 11 90 -3 6 -6 2 -6 -10z"/>
<path d="M5662 3905 c0 -16 2 -22 5 -12 2 9 2 23 0 30 -3 6 -5 -1 -5 -18z"/>
<path d="M5612 3885 c0 -16 2 -22 5 -12 2 9 2 23 0 30 -3 6 -5 -1 -5 -18z"/>
<path d="M5621 3834 c0 -11 3 -14 6 -6 3 7 2 16 -1 19 -3 4 -6 -2 -5 -13z"/>
<path d="M5873 3805 c-18 -8 -42 -29 -53 -47 -18 -30 -20 -50 -20 -231 0 -305
-26 -287 419 -287 l330 0 21 66 c11 36 20 72 20 80 0 12 -51 14 -304 14 -325
0 -336 2 -321 49 6 20 14 21 328 23 l322 3 16 50 c9 28 14 52 12 55 -3 3 -156
7 -341 10 -314 5 -337 6 -340 23 -9 46 -1 47 364 47 l343 0 21 69 c11 37 20
73 20 80 0 18 -795 15 -837 -4z"/>
<path d="M7484 3798 c-12 -13 -40 -49 -63 -80 l-42 -58 55 0 c64 0 93 -19 76
-50 -9 -16 -24 -20 -97 -22 l-87 -3 -38 -50 c-21 -27 -38 -53 -38 -57 0 -5
128 -8 284 -8 234 0 286 -2 295 -14 9 -11 10 -20 1 -35 -10 -21 -18 -21 -325
-21 l-315 0 -55 -74 c-30 -41 -55 -77 -55 -80 0 -4 250 -6 555 -6 477 0 560 2
585 15 54 28 59 53 61 274 2 304 30 285 -431 289 l-346 3 -20 -23z m626 -153
c21 -25 8 -50 -30 -55 -19 -3 -127 -3 -240 0 -187 5 -205 7 -208 23 -9 44 8
47 243 47 182 0 225 -3 235 -15z"/>
<path d="M8372 3620 l-1 -75 20 50 c31 81 34 94 13 65 l-19 -25 -6 30 c-4 19
-7 3 -7 -45z"/>
<path d="M5695 3660 c-4 -6 -11 -7 -17 -4 -11 7 -5 -18 18 -70 13 -31 13 -30
14 27 0 57 -3 66 -15 47z"/>
<path d="M8020 3063 l-95 -98 98 95 c90 88 102 100 94 100 -1 0 -45 -44 -97
-97z"/>
<path d="M6025 3091 c33 -34 87 -85 120 -113 48 -41 44 -36 -18 23 -42 41 -77
80 -77 87 0 7 4 10 10 7 6 -4 7 1 3 12 -7 19 -1 15 92 -67 22 -19 9 -2 -30 38
-53 55 -76 72 -97 72 -16 0 -28 -5 -28 -11 0 -8 -6 -7 -17 2 -10 7 9 -15 42
-50z m21 40 c9 8 11 5 7 -10 -4 -17 -8 -18 -24 -8 -10 6 -19 16 -19 21 0 6 5
5 12 -2 8 -8 15 -8 24 -1z"/>
<path d="M7999 3113 l-34 -38 40 35 c22 19 42 36 44 38 2 1 0 2 -5 2 -6 0 -26
-17 -45 -37z"/>
<path d="M7875 3003 c-36 -33 -44 -44 -20 -25 38 28 93 83 84 82 -2 -1 -31
-26 -64 -57z"/>
<path d="M6215 2990 c10 -11 20 -20 23 -20 3 0 -3 9 -13 20 -10 11 -20 20 -23
20 -3 0 3 -9 13 -20z"/>
<path d="M7889 2943 l-24 -28 28 24 c25 23 32 31 24 31 -2 0 -14 -12 -28 -27z"/>
<path d="M7770 2919 c-35 -31 -35 -31 -3 -9 18 11 35 25 38 30 10 16 2 11 -35
-21z"/>
<path d="M6220 2916 c0 -2 8 -10 18 -17 15 -13 16 -12 3 4 -13 16 -21 21 -21
13z"/>
<path d="M6321 2901 c7 -11 21 -22 31 -24 24 -7 23 -4 -13 22 -27 20 -29 21
-18 2z"/>
<path d="M7834 2898 l-19 -23 23 19 c21 18 27 26 19 26 -2 0 -12 -10 -23 -22z"/>
<path d="M6263 2882 c4 -6 22 -21 39 -34 17 -12 28 -17 25 -10 -4 6 -22 21
-39 34 -17 12 -28 17 -25 10z"/>
<path d="M7709 2873 c-13 -16 -12 -17 4 -4 9 7 17 15 17 17 0 8 -8 3 -21 -13z"/>
<path d="M7750 2839 c-78 -57 -87 -70 -12 -19 54 37 82 61 70 60 -2 -1 -28
-19 -58 -41z"/>
<path d="M6416 2837 c3 -10 9 -15 12 -12 3 3 0 11 -7 18 -10 9 -11 8 -5 -6z"/>
<path d="M6410 2799 c0 -6 -7 -8 -16 -5 -8 3 -12 2 -9 -4 10 -15 35 -12 35 5
0 8 -2 15 -5 15 -3 0 -5 -5 -5 -11z"/>
<path d="M7544 2764 c-18 -14 -18 -15 4 -4 12 6 22 13 22 15 0 8 -5 6 -26 -11z"/>
<path d="M7603 2739 c-35 -22 -46 -37 -15 -20 22 13 58 40 52 41 -3 0 -20 -10
-37 -21z"/>
<path d="M7484 2664 c-18 -14 -18 -15 4 -4 12 6 22 13 22 15 0 8 -5 6 -26 -11z"/>
<path d="M6803 2610 c15 -12 25 -26 22 -31 -4 -5 0 -6 8 -3 7 2 26 0 40 -5 46
-18 30 -4 -35 28 -44 22 -54 25 -35 11z"/>
<path d="M7385 2610 c-3 -6 1 -7 9 -4 18 7 21 14 7 14 -6 0 -13 -4 -16 -10z"/>
<path d="M6711 2596 c10 -9 129 -66 129 -61 0 5 -116 65 -126 65 -4 0 -5 -2
-3 -4z"/>
<path d="M7325 2580 c-3 -6 1 -7 9 -4 18 7 21 14 7 14 -6 0 -13 -4 -16 -10z"/>
<path d="M7258 2544 c-27 -13 -48 -27 -48 -29 0 -3 23 6 50 20 28 14 50 28 50
30 0 7 1 7 -52 -21z"/>
<path d="M7080 2520 c-8 -5 -10 -10 -5 -10 6 0 17 5 25 10 8 5 11 10 5 10 -5
0 -17 -5 -25 -10z"/>
<path d="M7110 2478 c-14 -6 -35 -15 -46 -20 -12 -6 -32 -7 -45 -3 -19 5 -21
4 -9 -4 22 -16 40 -13 95 13 49 24 53 34 5 14z"/>
<path d="M5767 6354 c-3 -4 0 -16 8 -28 22 -30 19 -44 -14 -60 -28 -15 -30
-14 -45 9 -17 25 -46 34 -46 14 0 -6 19 -42 41 -80 29 -48 46 -68 56 -65 8 4
17 6 20 6 2 0 -5 16 -17 34 l-21 35 32 17 c31 16 33 16 50 -7 10 -13 19 -27
19 -31 0 -11 30 3 30 14 0 5 -19 41 -41 79 -38 64 -56 79 -72 63z"/>
<path d="M8376 6209 c-26 -39 -44 -74 -39 -78 55 -46 86 -62 96 -52 9 9 4 19
-22 40 l-35 28 38 52 c34 46 42 81 18 81 -5 0 -30 -32 -56 -71z"/>
<path d="M5442 6190 c0 -50 2 -58 8 -35 4 17 8 24 9 16 0 -8 3 -12 6 -9 3 2
-1 24 -9 49 l-14 44 0 -65z"/>
<path d="M8501 6149 c-80 -75 -11 -190 89 -149 34 14 64 71 56 106 -16 61 -99
86 -145 43z m91 -26 c22 -20 23 -42 2 -71 -9 -14 -26 -22 -43 -22 -54 0 -68
44 -26 85 28 29 42 31 67 8z"/>
<path d="M5544 6138 c-4 -6 -3 -8 4 -4 6 3 12 -3 15 -16 4 -20 4 -19 6 5 1 28
-12 36 -25 15z"/>
<path d="M8673 6036 c-62 -28 -74 -107 -22 -150 39 -33 49 -33 84 4 25 26 26
30 11 36 -10 4 -25 -1 -36 -11 -19 -17 -21 -17 -40 0 -25 23 -25 36 1 69 26
33 53 33 83 1 43 -47 66 -19 24 29 -29 32 -64 39 -105 22z"/>
<path d="M5215 5939 c-39 -34 -47 -76 -19 -103 20 -21 37 -20 85 5 23 11 43
18 46 15 11 -11 -9 -43 -37 -59 -18 -11 -27 -23 -23 -32 8 -23 29 -18 67 19
80 74 22 152 -70 95 -29 -18 -35 -19 -40 -5 -8 20 3 35 31 46 17 7 22 14 18
29 -7 28 -16 26 -58 -10z"/>
<path d="M8822 5831 c-51 -48 -60 -61 -48 -70 11 -10 22 -5 52 21 29 25 36 28
30 13 -28 -73 -21 -83 44 -65 l35 9 -39 -34 c-32 -29 -37 -37 -26 -50 11 -13
21 -7 79 42 36 32 68 59 70 60 3 2 0 8 -6 14 -8 8 -27 7 -68 -1 -31 -6 -58
-10 -61 -8 -2 2 5 28 16 57 35 90 11 94 -78 12z"/>
<path d="M5100 5807 c-27 -21 -50 -60 -50 -85 0 -55 48 -102 104 -102 50 0
120 86 95 116 -22 27 -49 36 -64 24 -12 -10 -11 -15 7 -30 26 -20 19 -45 -16
-62 -20 -9 -30 -8 -51 6 -14 10 -29 24 -32 32 -8 22 14 65 37 71 25 7 27 43 3
43 -10 0 -25 -6 -33 -13z"/>
<path d="M8987 5656 c-68 -15 -87 -23 -85 -35 2 -10 14 -16 31 -16 33 0 73
-51 55 -72 -11 -13 -4 -43 10 -43 4 0 25 28 45 63 21 34 43 70 50 79 9 14 9
20 -3 31 -13 11 -29 10 -103 -7z m45 -51 c-20 -26 -21 -26 -32 -5 -8 15 -8 21
2 24 54 17 57 16 30 -19z"/>
<path d="M4964 5621 c-87 -53 -54 -181 46 -181 101 1 139 139 50 185 -38 20
-58 19 -96 -4z m80 -42 c30 -23 33 -54 9 -81 -23 -26 -58 -22 -82 8 -27 34
-26 40 4 69 29 30 35 31 69 4z"/>
<path d="M9080 5520 c-36 -22 -65 -44 -64 -50 1 -5 2 -15 3 -21 0 -6 20 1 45
15 25 14 47 26 50 26 3 0 -6 -24 -19 -52 -43 -92 -30 -104 58 -52 87 52 89 54
76 70 -9 11 -19 9 -55 -12 l-44 -26 9 23 c5 13 16 40 24 59 15 37 13 61 -6 59
-7 0 -41 -18 -77 -39z"/>
<path d="M4976 5375 c-11 -19 -23 -35 -28 -35 -5 0 -36 14 -69 30 -58 30 -79
32 -79 7 0 -10 127 -87 155 -94 6 -2 24 21 41 51 23 39 29 57 21 65 -17 17
-21 14 -41 -24z"/>
<path d="M9157 5341 c-31 -3 -57 -9 -57 -13 0 -5 0 -12 0 -18 0 -5 11 -10 25
-10 34 0 61 -50 43 -80 -9 -14 -9 -23 -2 -30 14 -14 136 116 132 139 -4 18
-48 22 -141 12z m76 -52 c-22 -22 -43 -19 -43 7 0 9 11 14 32 14 l32 0 -21
-21z"/>
<path d="M4765 5307 c-4 -13 3 -43 14 -70 11 -26 18 -47 15 -47 -3 0 -19 7
-36 16 -30 15 -32 15 -45 -2 -15 -21 -18 -19 93 -70 64 -29 76 -32 81 -18 4
10 -4 24 -22 38 -35 28 -27 42 26 51 28 5 43 13 49 28 4 12 6 23 5 25 -3 3
-53 -9 -106 -24 -12 -3 -22 9 -38 46 -12 27 -24 50 -26 50 -3 0 -7 -10 -10
-23z"/>
<path d="M9280 5213 c-80 -26 -102 -91 -52 -153 17 -21 19 -21 55 -7 27 12 35
20 31 32 -4 10 -13 14 -23 9 -35 -14 -46 -9 -49 23 -6 63 90 87 104 25 10 -47
14 -54 27 -50 37 13 9 94 -39 114 -19 8 -35 14 -36 13 -2 0 -10 -3 -18 -6z"/>
<path d="M4675 5110 c-10 -16 3 -29 45 -41 22 -7 40 -15 40 -19 0 -3 -28 -15
-62 -26 -46 -15 -64 -25 -66 -40 -2 -16 12 -24 84 -48 71 -23 88 -26 95 -15
14 23 11 27 -43 45 l-53 17 30 13 c17 7 45 16 63 20 27 5 62 39 50 48 -9 8
-151 56 -163 56 -8 0 -17 -4 -20 -10z"/>
<path d="M9320 5028 c-36 -11 -67 -22 -69 -24 -3 -3 3 -29 13 -59 11 -36 22
-55 33 -55 15 0 15 28 -2 71 -4 11 0 18 14 22 16 4 22 -2 31 -29 7 -19 18 -34
26 -34 16 0 17 5 5 47 -8 26 -6 32 9 36 15 4 22 -4 32 -34 10 -29 16 -36 27
-29 13 7 13 15 0 57 -18 57 -27 60 -119 31z"/>
<path d="M4605 4899 c-4 -11 -5 -22 -3 -23 5 -5 164 -46 176 -46 7 0 12 9 12
20 0 14 -11 22 -42 30 -24 6 -63 18 -87 25 -25 8 -46 15 -47 15 -2 0 -6 -9 -9
-21z"/>
<path d="M9372 4878 c-93 -22 -108 -45 -26 -40 l48 2 -32 -32 c-37 -35 -33
-43 32 -54 44 -7 35 -17 -27 -28 -29 -5 -37 -11 -35 -24 3 -9 8 -16 14 -16 5
1 44 10 87 19 97 21 102 42 14 65 -31 8 -57 17 -57 20 0 4 20 22 45 40 28 21
43 40 40 48 -3 7 -5 16 -5 18 0 5 -2 5 -98 -18z"/>
<path d="M4737 4793 c-3 -10 -8 -30 -11 -45 -7 -32 -10 -32 -91 -13 -46 11
-61 11 -67 2 -13 -21 -9 -26 30 -36 56 -15 126 -30 138 -31 13 0 39 113 30
129 -10 16 -24 13 -29 -6z"/>
<path d="M9475 4665 c-5 -2 -36 -6 -69 -10 l-59 -7 6 -54 c6 -62 12 -75 31
-68 10 4 11 16 6 44 -5 30 -4 40 7 45 23 8 33 -3 33 -36 0 -22 5 -29 19 -29
16 0 18 5 14 40 -5 36 -3 40 16 40 17 0 21 -6 21 -35 0 -23 6 -38 15 -42 24
-8 26 -1 18 58 -7 44 -12 54 -28 56 -11 1 -24 0 -30 -2z"/>
<path d="M4556 4628 c-8 -13 -17 -46 -21 -75 l-7 -52 34 -5 c94 -16 149 -22
152 -17 11 20 16 123 6 140 -11 22 -64 30 -75 11 -4 -6 -12 -4 -21 5 -22 22
-51 18 -68 -7z m54 -63 c0 -38 0 -38 -24 -29 -16 6 -22 45 -9 57 17 18 33 5
33 -28z m80 1 c0 -38 -10 -49 -34 -40 -11 4 -14 13 -10 33 9 36 13 41 30 41 9
0 14 -11 14 -34z"/>
<path d="M9428 4503 c-51 -4 -58 -7 -58 -24 0 -19 5 -21 50 -17 28 1 50 0 50
-3 0 -3 -20 -20 -45 -39 -25 -19 -45 -42 -45 -53 0 -17 6 -18 83 -12 85 8 104
15 92 35 -5 8 -23 11 -51 7 -24 -2 -44 -3 -44 -1 0 1 21 23 47 47 49 47 51 68
5 65 -15 -1 -53 -3 -84 -5z"/>
<path d="M4603 4319 c14 -8 17 -27 19 -112 l2 -102 3 99 c4 96 -4 126 -31 126
-6 0 -3 -5 7 -11z"/>
<path d="M9526 4305 c6 -24 4 -25 -39 -25 -64 0 -107 -10 -107 -26 0 -9 20
-14 73 -16 66 -3 72 -5 75 -25 2 -13 10 -23 18 -23 11 0 14 16 14 70 0 64 -2
70 -20 70 -17 0 -19 -5 -14 -25z"/>
<path d="M4574 4225 c0 -55 1 -76 3 -47 2 29 2 74 0 100 -2 26 -3 2 -3 -53z"/>
<path d="M4582 4050 c0 -19 2 -27 5 -17 2 9 2 25 0 35 -3 9 -5 1 -5 -18z"/>
<path d="M4631 4044 c0 -21 4 -57 9 -79 6 -30 7 -21 3 35 -6 81 -13 107 -12
44z"/>
<path d="M9444 4037 c-3 -9 -4 -28 -1 -44 4 -28 4 -28 6 4 1 39 14 48 36 26
16 -16 17 -15 13 3 -4 23 -46 32 -54 11z"/>
<path d="M4592 3965 c0 -16 2 -22 5 -12 2 9 2 23 0 30 -3 6 -5 -1 -5 -18z"/>
<path d="M9479 3962 c-2 -20 -4 -27 -10 -37 -3 -5 -3 -23 1 -40 5 -27 7 -24
13 24 5 29 6 56 2 59 -3 3 -6 0 -6 -6z"/>
<path d="M9426 3909 c-4 -28 -5 -54 -1 -57 3 -3 5 1 5 9 1 8 5 33 9 57 5 23 5
42 1 42 -4 0 -10 -23 -14 -51z"/>
<path d="M4602 3895 c0 -16 2 -22 5 -12 2 9 2 23 0 30 -3 6 -5 -1 -5 -18z"/>
<path d="M4652 3890 c0 -14 2 -19 5 -12 2 6 2 18 0 25 -3 6 -5 1 -5 -13z"/>
<path d="M4611 3834 c0 -11 3 -14 6 -6 3 7 2 16 -1 19 -3 4 -6 -2 -5 -13z"/>
<path d="M9401 3774 c0 -11 3 -14 6 -6 3 7 2 16 -1 19 -3 4 -6 -2 -5 -13z"/>
<path d="M9451 3774 c0 -11 3 -14 6 -6 3 7 2 16 -1 19 -3 4 -6 -2 -5 -13z"/>
<path d="M4681 3744 c0 -11 3 -14 6 -6 3 7 2 16 -1 19 -3 4 -6 -2 -5 -13z"/>
<path d="M9391 3734 c0 -11 3 -14 6 -6 3 7 2 16 -1 19 -3 4 -6 -2 -5 -13z"/>
<path d="M9435 3720 c-4 -17 -5 -34 -2 -36 2 -3 7 10 11 27 8 42 0 50 -9 9z"/>
<path d="M4691 3704 c0 -11 3 -14 6 -6 3 7 2 16 -1 19 -3 4 -6 -2 -5 -13z"/>
<path d="M9380 3696 c0 -8 -3 -23 -6 -33 -5 -12 -4 -15 3 -8 16 15 26 55 14
55 -6 0 -11 -6 -11 -14z"/>
<path d="M4651 3664 c0 -11 3 -14 6 -6 3 7 2 16 -1 19 -3 4 -6 -2 -5 -13z"/>
<path d="M9417 3656 c-4 -10 -7 -25 -6 -34 0 -11 4 -9 10 7 5 13 8 29 6 35 -2
5 -6 2 -10 -8z"/>
<path d="M9356 3614 c-4 -14 -5 -28 -3 -31 3 -2 8 8 11 23 4 14 5 28 3 31 -3
2 -8 -8 -11 -23z"/>
<path d="M9305 3463 c-10 -27 -35 -85 -56 -130 -21 -46 -35 -83 -33 -83 6 0
81 160 100 214 20 57 10 55 -11 -1z"/>
<path d="M4771 3468 c-1 -12 31 -89 35 -85 3 2 -4 24 -15 48 -11 24 -20 41
-20 37z"/>
<path d="M4726 3440 c9 -37 85 -189 79 -159 -3 16 1 31 9 38 11 9 16 5 26 -19
7 -17 15 -29 17 -26 2 2 -7 26 -22 53 -14 26 -23 38 -20 26 3 -12 2 -24 -3
-27 -16 -9 -44 19 -45 46 -1 15 -4 24 -6 22 -2 -2 -13 13 -23 33 -11 24 -16
28 -12 13z"/>
<path d="M9336 3410 c-22 -56 -19 -65 5 -11 11 24 18 46 15 48 -2 2 -11 -14
-20 -37z"/>
<path d="M9281 3285 c-17 -36 -31 -68 -31 -73 1 -8 38 60 57 106 24 57 5 34
-26 -33z"/>
<path d="M4960 3080 c6 -11 13 -20 16 -20 2 0 0 9 -6 20 -6 11 -13 20 -16 20
-2 0 0 -9 6 -20z"/>
<path d="M4916 3060 c15 -29 125 -190 130 -190 6 0 0 11 -41 70 -33 46 -49 79
-47 93 1 4 -2 6 -7 5 -5 -2 -17 6 -26 17 -9 11 -13 13 -9 5z"/>
<path d="M4985 3040 c15 -28 96 -140 101 -140 3 0 -16 30 -42 68 -48 68 -74
100 -59 72z"/>
<path d="M9079 3028 c-7 -12 -36 -57 -66 -98 -46 -64 -48 -69 -15 -33 35 38
40 41 45 23 3 -11 -2 -25 -12 -32 -15 -12 -15 -11 -1 7 14 18 14 19 -2 7 -9
-8 -14 -20 -11 -28 3 -9 -9 -33 -28 -57 -18 -23 -25 -36 -16 -28 21 17 114
140 152 201 27 44 27 44 3 22 -13 -12 -27 -20 -30 -17 -3 3 -11 -1 -18 -10 -7
-9 -8 -15 -2 -15 6 0 13 6 15 13 3 6 6 8 6 2 0 -5 -10 -23 -23 -39 l-24 -28 4
32 c2 17 13 45 25 61 12 17 19 33 16 35 -3 3 -11 -5 -18 -18z"/>
<path d="M5050 2856 c0 -2 8 -10 18 -17 15 -13 16 -12 3 4 -13 16 -21 21 -21
13z"/>
<path d="M8924 2818 l-19 -23 23 19 c12 11 22 21 22 23 0 8 -8 2 -26 -19z"/>
<path d="M8836 2720 c-45 -48 -56 -73 -36 -85 20 -12 46 6 105 72 l59 68 -54
-49 c-30 -27 -63 -58 -73 -68 -22 -22 -27 -23 -27 -3 0 9 11 20 24 25 13 5 27
14 32 21 4 8 3 10 -4 5 -19 -11 -14 9 9 38 33 42 16 30 -35 -24z"/>
<path d="M5230 2725 c19 -22 36 -42 38 -44 1 -2 4 -2 7 0 2 3 -14 23 -38 45
l-42 39 35 -40z"/>
<path d="M5191 2694 c54 -65 99 -82 99 -36 0 13 -2 13 -14 -4 -14 -18 -17 -17
-67 31 -49 47 -51 47 -18 9z"/>
<path d="M8132 1729 c-15 -25 -18 -38 -10 -37 12 3 42 67 35 74 -1 1 -13 -15
-25 -37z"/>
<path d="M7930 1634 c-123 -39 -204 -153 -203 -288 1 -81 21 -139 68 -194 34
-41 104 -87 115 -75 4 4 13 30 19 56 11 48 11 48 -24 81 -19 18 -35 38 -35 45
0 6 -9 11 -20 11 -20 0 -28 24 -11 35 5 3 15 31 21 63 14 67 40 114 79 142 16
11 45 47 64 80 l36 60 -32 -1 c-18 0 -52 -7 -77 -15z"/>
<path d="M8625 1626 c-124 -52 -192 -163 -183 -300 8 -115 62 -197 161 -245
108 -52 232 -50 345 5 l52 25 0 125 0 125 -62 -3 -63 -3 -1 -85 -1 -85 -34
-12 c-82 -29 -175 -3 -225 62 -23 31 -29 49 -32 104 -2 55 1 73 20 106 57 97
200 116 303 41 18 -14 24 -12 65 24 44 38 45 38 26 59 -11 12 -44 33 -75 48
-45 22 -71 28 -145 30 -79 3 -99 0 -151 -21z"/>
<path d="M9229 1634 c-113 -34 -165 -173 -98 -258 29 -36 61 -52 175 -81 115
-30 144 -46 144 -80 0 -66 -138 -81 -253 -27 l-65 30 -21 -50 c-26 -63 -21
-69 67 -99 79 -27 201 -31 275 -10 91 26 147 111 131 196 -14 75 -66 111 -214
146 -104 24 -143 50 -133 89 13 50 122 64 220 30 32 -11 59 -20 61 -20 1 0 12
21 23 47 19 45 19 48 2 61 -55 40 -223 54 -314 26z"/>
<path d="M4500 1345 l0 -295 168 0 c257 0 325 18 363 98 31 64 20 125 -33 175
l-39 37 25 31 c70 83 28 208 -82 239 -20 5 -119 10 -219 10 l-183 0 0 -295z
m359 171 c39 -35 21 -98 -32 -111 -12 -3 -60 -5 -107 -3 l-85 3 -3 54 c-5 84
-6 83 107 79 80 -2 103 -7 120 -22z m26 -241 c33 -32 32 -68 -1 -94 -23 -18
-41 -21 -140 -21 l-114 0 0 70 0 70 115 0 c110 0 117 -1 140 -25z"/>
<path d="M5150 1345 l0 -295 218 2 217 3 0 55 0 55 -153 3 -153 3 1 172 c0 94
1 200 0 235 l0 62 -65 0 -65 0 0 -295z"/>
<path d="M5670 1345 l0 -295 65 0 65 0 0 295 0 295 -65 0 -65 0 0 -295z"/>
<path d="M5940 1345 l0 -295 65 0 65 0 2 182 3 182 148 -182 149 -182 59 0 59
0 0 295 0 295 -70 0 -70 0 -2 -175 -3 -175 -144 175 -145 175 -58 0 -58 0 0
-295z"/>
<path d="M6620 1345 l0 -296 68 3 67 3 -3 70 c-3 68 -2 71 33 113 20 23 41 42
46 42 5 0 50 -52 101 -115 l92 -115 78 0 c43 0 78 2 78 5 0 3 -56 76 -125 163
-69 86 -125 159 -125 163 0 3 54 62 121 132 l121 127 -84 -1 -83 -1 -119 -129
c-66 -71 -123 -129 -128 -129 -4 0 -8 59 -8 130 l0 130 -65 0 -65 0 0 -295z"/>
<path d="M7250 1345 l0 -295 220 0 221 0 -3 58 -3 57 -154 3 -153 3 3 234 4
235 -67 0 -68 0 0 -295z"/>
<path d="M8051 1594 c-12 -20 -20 -39 -17 -41 2 -3 14 13 26 36 25 51 20 54
-9 5z"/>
<path d="M8151 1578 l-13 -53 45 -47 c24 -27 50 -48 57 -48 8 0 10 -7 5 -22
-4 -13 -11 -47 -15 -76 -11 -67 -36 -110 -84 -142 -33 -23 -105 -120 -106
-143 0 -16 96 5 157 34 110 53 163 142 163 273 0 83 -27 150 -81 205 -36 37
-87 71 -105 71 -6 0 -16 -24 -23 -52z"/>
<path d="M8096 1574 c-4 -14 -5 -28 -3 -31 3 -2 8 8 11 23 4 14 5 28 3 31 -3
2 -8 -8 -11 -23z"/>
<path d="M8081 1514 c0 -11 3 -14 6 -6 3 7 2 16 -1 19 -3 4 -6 -2 -5 -13z"/>
<path d="M8066 1464 c-4 -14 -5 -28 -3 -31 3 -2 8 8 11 23 4 14 5 28 3 31 -3
2 -8 -8 -11 -23z"/>
<path d="M7960 1440 c-6 -11 -8 -20 -6 -20 3 0 10 9 16 20 6 11 8 20 6 20 -3
0 -10 -9 -16 -20z"/>
<path d="M8168 1393 c6 -2 18 -2 25 0 6 3 1 5 -13 5 -14 0 -19 -2 -12 -5z"/>
<path d="M7885 1320 c-3 -5 -1 -10 4 -10 6 0 11 5 11 10 0 6 -2 10 -4 10 -3 0
-8 -4 -11 -10z"/>
<path d="M8080 1219 c-17 -31 -43 -59 -51 -54 -4 3 -12 -2 -19 -10 -8 -10 -9
-15 -2 -15 16 0 7 -33 -24 -85 -20 -35 -29 -43 -36 -33 -6 9 -7 5 -3 -11 4
-14 3 -21 -2 -18 -6 4 -15 -9 -21 -28 -5 -19 -8 -35 -6 -35 3 0 147 239 173
288 6 12 9 22 7 22 -3 0 -10 -9 -16 -21z"/>
<path d="M7986 1174 c-10 -31 -15 -58 -12 -62 3 -3 6 1 6 10 0 8 9 25 20 38
22 25 26 35 10 25 -7 -4 -9 2 -4 19 12 48 -2 27 -20 -30z"/>
</g>
</svg>
